<svg width="510" height="216" viewBox="0 0 510 216" fill="none" xmlns="http://www.w3.org/2000/svg">
<path d="M-8 182.629C-8 182.629 28.867 167.354 56.7651 148.426C90.3162 125.661 109.825 79.7671 150.579 80.0184C193.208 80.2813 204.416 142.472 245.822 132.495C285.91 122.836 266.377 57.5156 306.301 47.2205C360.122 33.342 349.327 145.351 404.878 148.426C466.196 151.82 514.883 37.8496 514.883 37.8496" stroke="#B09BFF" stroke-width="2" stroke-dasharray="4 4"/>
<path d="M60.7393 82.8143C21.6338 92.827 -5.45447 161.061 -5.45447 161.061V215.239H516V70.6322C516 70.6322 503.971 125.412 475.998 139.976C430.764 163.528 416.098 62.9707 365.516 70.6322C340.853 74.368 333.797 99.2052 308.847 99.6818C272.751 100.371 273.041 42.6135 236.939 42.5197C189.678 42.3969 213.409 129.3 167.411 139.976C121.243 150.693 106.646 71.0601 60.7393 82.8143Z" fill="url(#paint0_linear_77_336)"/>
<path d="M-5.69342 161.062C-5.69342 161.062 21.3948 92.828 60.5003 82.8153C106.407 71.0611 121.004 150.694 167.172 139.977C213.17 129.3 189.439 42.3978 236.7 42.5206C272.802 42.6144 272.512 100.372 308.608 99.6828C333.558 99.2062 340.614 74.369 365.277 70.6332C415.859 62.9717 430.525 163.529 475.759 139.977C503.732 125.413 515.761 70.6332 515.761 70.6332" stroke="url(#paint1_linear_77_336)" stroke-width="4" stroke-linecap="round"/>
<line x1="237.039" y1="211.633" x2="237.039" y2="-0.00351217" stroke="#9D9EA9" stroke-dasharray="6 6"/>
<circle cx="237" cy="35" r="6" fill="#0E132F" stroke="white" stroke-width="4"/>
<defs>
<linearGradient id="paint0_linear_77_336" x1="255.273" y1="42.5195" x2="255.273" y2="215.239" gradientUnits="userSpaceOnUse">
<stop stop-color="#4169E1" stop-opacity="0.12"/>
<stop offset="1" stop-color="#4169E1" stop-opacity="0.01"/>
</linearGradient>
<linearGradient id="paint1_linear_77_336" x1="-5.69342" y1="101.791" x2="515.761" y2="101.791" gradientUnits="userSpaceOnUse">
<stop stop-color="#8A6FF2"/>
<stop offset="1" stop-color="#02E8A4"/>
</linearGradient>
</defs>
</svg>
