<svg width="346" height="107" viewBox="0 0 346 107" fill="none" xmlns="http://www.w3.org/2000/svg">
<path d="M1 113.401C1 113.401 25.5066 103.248 44.0512 90.6651C66.3536 75.5331 79.3215 45.0259 106.412 45.1929C134.749 45.3676 142.199 86.7077 169.723 80.0757C196.371 73.6548 183.386 30.2347 209.925 23.3912C245.701 14.1658 238.526 88.6213 275.452 90.6651C316.212 92.9212 348.575 17.1621 348.575 17.1621" stroke="#B09BFF" stroke-width="1.32946" stroke-dasharray="2.66 2.66"/>
<path d="M46.693 47.0514C20.6984 53.7072 2.69209 99.0642 2.69209 99.0642V135.078H349.318V38.9537C349.318 38.9537 341.322 75.3674 322.727 85.0488C292.659 100.704 282.91 33.8608 249.287 38.9537C232.892 41.4369 228.202 57.947 211.617 58.2638C187.624 58.7221 187.816 20.3288 163.818 20.2664C132.402 20.1848 148.177 77.9515 117.601 85.0488C86.9114 92.1724 77.2086 39.2381 46.693 47.0514Z" fill="url(#paint0_linear_101_6896)"/>
<path d="M2.53323 99.0649C2.53323 99.0649 20.5396 53.7079 46.5341 47.0522C77.0498 39.2389 86.7525 92.1731 117.442 85.0495C148.018 77.9522 132.243 20.1856 163.659 20.2672C187.657 20.3295 187.465 58.7229 211.458 58.2645C228.043 57.9477 232.733 41.4377 249.128 38.9544C282.751 33.8616 292.5 100.705 322.569 85.0495C341.163 75.3681 349.159 38.9544 349.159 38.9544" stroke="url(#paint1_linear_101_6896)" stroke-width="2.65891" stroke-linecap="round"/>
<line x1="163.668" y1="133" x2="163.668" y2="-7.31684e-06" stroke="#9D9EA9" stroke-width="0.664729" stroke-dasharray="3.99 3.99"/>
<circle cx="163.5" cy="15.5" r="3.82946" fill="#0E132F" stroke="white" stroke-width="2.65891"/>
<defs>
<linearGradient id="paint0_linear_101_6896" x1="176.005" y1="20.2664" x2="176.005" y2="135.078" gradientUnits="userSpaceOnUse">
<stop stop-color="#4169E1" stop-opacity="0.12"/>
<stop offset="1" stop-color="#4169E1" stop-opacity="0.01"/>
</linearGradient>
<linearGradient id="paint1_linear_101_6896" x1="2.53323" y1="59.666" x2="349.159" y2="59.666" gradientUnits="userSpaceOnUse">
<stop stop-color="#8A6FF2"/>
<stop offset="1" stop-color="#02E8A4"/>
</linearGradient>
</defs>
</svg>
