<svg xmlns="http://www.w3.org/2000/svg" viewBox="0 0 349.74 135.08"><defs><linearGradient id="b" x1="173.31" y1="83.88" x2="173.31" y2="-30.93" gradientTransform="matrix(1 0 0 -1 0 136.3)" gradientUnits="userSpaceOnUse"><stop offset="0" stop-color="#4169e1" stop-opacity=".12"/><stop offset="1" stop-color="#4169e1" stop-opacity=".01"/></linearGradient><linearGradient id="c" x1="-.16" y1="44.48" x2="346.47" y2="44.48" gradientTransform="matrix(1 0 0 -1 0 136.3)" gradientUnits="userSpaceOnUse"><stop offset="0" stop-color="#8a6ff2"/><stop offset="1" stop-color="#02e8a4"/></linearGradient><mask id="a" x="0" y="-35" width="349.74" height="170.08" maskUnits="userSpaceOnUse"><rect x=".31" y="-2.85" width="339" height="134" rx="8" fill="#fff" transform="translate(1.95 -32.15)"/></mask></defs><g mask="url(#a)"><path d="M.26 113.4s24.5-10.15 43.05-22.74c22.3-15.13 35.27-45.64 62.36-45.47 28.34.18 35.79 41.52 63.31 34.88 26.65-6.42 13.66-49.84 40.2-56.68 35.78-9.23 28.6 65.23 65.53 67.27 40.76 2.26 73.12-73.5 73.12-73.5" stroke="#b09bff" stroke-width="1.33" stroke-dasharray="2.66 2.66" fill="none"/><path d="M44 79.2c-26 6.66-44 52-44 52v36h346.63V71.1s-8 36.42-26.6 46.1C290 132.85 280.22 66 246.59 71.1c-16.39 2.49-21.08 19-37.67 19.31-24 .46-23.8-37.93-47.79-38-31.42-.08-15.65 57.69-46.22 64.79S74.52 71.39 44 79.2z" transform="translate(1.95 -32.15)" fill="url(#b)"/><path d="M-.16 131.21s18-45.35 44-52c30.52-7.81 40.22 45.12 70.91 38s14.8-64.88 46.25-64.79c24 .06 23.8 38.45 47.8 38 16.55-.32 21.2-16.83 37.64-19.32 33.62-5.09 43.37 61.75 73.44 46.1 18.59-9.68 26.59-46.1 26.59-46.1" transform="translate(1.95 -32.15)" stroke-linecap="round" stroke-width="2.66" stroke="url(#c)" fill="none"/><path stroke="#9d9ea9" stroke-width=".66" stroke-dasharray="3.99 3.99" fill="none" d="M162.92 133V0"/></g></svg>