<svg width="174" height="29" viewBox="0 0 174 29" fill="none" xmlns="http://www.w3.org/2000/svg">
<path d="M34.424 21C33.6667 21 33.0747 20.8027 32.648 20.408C32.232 20.0027 32.024 19.4427 32.024 18.728V12.024C32.024 11.3307 32.2267 10.7867 32.632 10.392C33.0373 9.99733 33.6027 9.8 34.328 9.8H39.304C39.5813 9.8 39.7947 9.864 39.944 9.992C40.0933 10.1093 40.168 10.2853 40.168 10.52C40.168 10.744 40.0933 10.92 39.944 11.048C39.7947 11.1653 39.5813 11.224 39.304 11.224H34.584C34.3493 11.224 34.168 11.2987 34.04 11.448C33.912 11.5973 33.848 11.8 33.848 12.056V14.568H38.088C38.3653 14.568 38.5787 14.632 38.728 14.76C38.8773 14.8773 38.952 15.0533 38.952 15.288C38.952 15.512 38.8773 15.688 38.728 15.816C38.5787 15.9333 38.3653 15.992 38.088 15.992H33.848V18.744C33.848 19 33.912 19.2027 34.04 19.352C34.168 19.5013 34.3493 19.576 34.584 19.576H39.656C39.9333 19.576 40.1467 19.64 40.296 19.768C40.4453 19.8853 40.52 20.0613 40.52 20.296C40.52 20.52 40.4453 20.696 40.296 20.824C40.1467 20.9413 39.9333 21 39.656 21H34.424ZM42.3049 12.04C42.3049 11.3467 42.5075 10.8027 42.9129 10.408C43.3182 10.0027 43.8889 9.8 44.6249 9.8H47.5209C49.0675 9.8 50.2302 10.1093 51.0089 10.728C51.7982 11.3467 52.1929 12.2587 52.1929 13.464C52.1929 14.6053 51.8462 15.4907 51.1529 16.12C50.4595 16.7493 49.4995 17.064 48.2729 17.064L50.9289 19.752C51.0995 19.9227 51.1849 20.1093 51.1849 20.312C51.1849 20.536 51.0782 20.7387 50.8649 20.92C50.6622 21.0693 50.4649 21.144 50.2729 21.144C50.0062 21.144 49.7502 21.016 49.5049 20.76L45.9849 17.112H44.1769V20.296C44.1769 20.5627 44.0862 20.776 43.9049 20.936C43.7342 21.0853 43.5102 21.16 43.2329 21.16C42.9449 21.16 42.7155 21.0853 42.5449 20.936C42.3849 20.776 42.3049 20.5627 42.3049 20.296V12.04ZM47.5049 15.64C48.5289 15.64 49.2489 15.48 49.6649 15.16C50.0915 14.8293 50.3049 14.264 50.3049 13.464C50.3049 12.6853 50.0755 12.1253 49.6169 11.784C49.1582 11.4427 48.4542 11.272 47.5049 11.272H44.8969C44.6729 11.272 44.4969 11.3467 44.3689 11.496C44.2409 11.6347 44.1769 11.832 44.1769 12.088V15.64H47.5049ZM54.7775 21.144C54.5002 21.144 54.2815 21.0693 54.1215 20.92C53.9615 20.7707 53.8815 20.5627 53.8815 20.296V14.472C53.8815 12.9573 54.3135 11.7733 55.1775 10.92C56.0415 10.0667 57.2415 9.64 58.7775 9.64C59.7802 9.64 60.6495 9.83733 61.3855 10.232C62.1215 10.616 62.6815 11.1707 63.0655 11.896C63.4602 12.6213 63.6575 13.48 63.6575 14.472V20.296C63.6575 20.5627 63.5775 20.7707 63.4175 20.92C63.2575 21.0693 63.0388 21.144 62.7615 21.144C62.4842 21.144 62.2602 21.0693 62.0895 20.92C61.9188 20.76 61.8335 20.552 61.8335 20.296V17.352H55.7055V20.296C55.7055 20.552 55.6202 20.76 55.4495 20.92C55.2788 21.0693 55.0548 21.144 54.7775 21.144ZM61.8335 15.928V14.424C61.8335 13.336 61.5722 12.5093 61.0495 11.944C60.5375 11.3787 59.7802 11.096 58.7775 11.096C57.7642 11.096 56.9962 11.3787 56.4735 11.944C55.9615 12.4987 55.7055 13.3253 55.7055 14.424V15.928H61.8335Z" fill="#02E8A4"/>
<path d="M66.92 21.16C66.6427 21.16 66.424 21.0853 66.264 20.936C66.104 20.7867 66.024 20.5787 66.024 20.312V12.024C66.024 11.3307 66.2267 10.7867 66.632 10.392C67.0373 9.99733 67.6027 9.8 68.328 9.8H71.048C72.6267 9.8 73.8213 10.1307 74.632 10.792C75.4533 11.4533 75.864 12.4293 75.864 13.72C75.864 14.9893 75.4587 15.9547 74.648 16.616C73.848 17.2667 72.6747 17.592 71.128 17.592H67.848V20.312C67.848 20.568 67.7627 20.776 67.592 20.936C67.4213 21.0853 67.1973 21.16 66.92 21.16ZM71.112 16.152C73.0533 16.152 74.024 15.3413 74.024 13.72C74.024 12.8667 73.7787 12.2373 73.288 11.832C72.808 11.4267 72.088 11.224 71.128 11.224H68.584C68.3493 11.224 68.168 11.2987 68.04 11.448C67.912 11.5973 67.848 11.8 67.848 12.056V16.152H71.112ZM78.4806 21.144C78.2033 21.144 77.9846 21.0693 77.8246 20.92C77.6646 20.7707 77.5846 20.5627 77.5846 20.296V14.472C77.5846 12.9573 78.0166 11.7733 78.8806 10.92C79.7446 10.0667 80.9446 9.64 82.4806 9.64C83.4833 9.64 84.3526 9.83733 85.0886 10.232C85.8246 10.616 86.3846 11.1707 86.7686 11.896C87.1633 12.6213 87.3606 13.48 87.3606 14.472V20.296C87.3606 20.5627 87.2806 20.7707 87.1206 20.92C86.9606 21.0693 86.742 21.144 86.4646 21.144C86.1873 21.144 85.9633 21.0693 85.7926 20.92C85.622 20.76 85.5366 20.552 85.5366 20.296V17.352H79.4086V20.296C79.4086 20.552 79.3233 20.76 79.1526 20.92C78.982 21.0693 78.758 21.144 78.4806 21.144ZM85.5366 15.928V14.424C85.5366 13.336 85.2753 12.5093 84.7526 11.944C84.2406 11.3787 83.4833 11.096 82.4806 11.096C81.4673 11.096 80.6993 11.3787 80.1766 11.944C79.6646 12.4987 79.4086 13.3253 79.4086 14.424V15.928H85.5366ZM89.3049 12.04C89.3049 11.3467 89.5075 10.8027 89.9129 10.408C90.3182 10.0027 90.8889 9.8 91.6249 9.8H94.5209C96.0675 9.8 97.2302 10.1093 98.0089 10.728C98.7982 11.3467 99.1929 12.2587 99.1929 13.464C99.1929 14.6053 98.8462 15.4907 98.1529 16.12C97.4595 16.7493 96.4995 17.064 95.2729 17.064L97.9289 19.752C98.0995 19.9227 98.1849 20.1093 98.1849 20.312C98.1849 20.536 98.0782 20.7387 97.8649 20.92C97.6622 21.0693 97.4649 21.144 97.2729 21.144C97.0062 21.144 96.7502 21.016 96.5049 20.76L92.9849 17.112H91.1769V20.296C91.1769 20.5627 91.0862 20.776 90.9049 20.936C90.7342 21.0853 90.5102 21.16 90.2329 21.16C89.9449 21.16 89.7155 21.0853 89.5449 20.936C89.3849 20.776 89.3049 20.5627 89.3049 20.296V12.04ZM94.5049 15.64C95.5289 15.64 96.2489 15.48 96.6649 15.16C97.0915 14.8293 97.3049 14.264 97.3049 13.464C97.3049 12.6853 97.0755 12.1253 96.6169 11.784C96.1582 11.4427 95.4542 11.272 94.5049 11.272H91.8969C91.6729 11.272 91.4969 11.3467 91.3689 11.496C91.2409 11.6347 91.1769 11.832 91.1769 12.088V15.64H94.5049ZM105.318 21.16C105.041 21.16 104.817 21.0853 104.646 20.936C104.486 20.7867 104.406 20.5787 104.406 20.312V11.224H101.126C100.849 11.224 100.635 11.1653 100.486 11.048C100.337 10.92 100.262 10.744 100.262 10.52C100.262 10.2853 100.337 10.1093 100.486 9.992C100.635 9.864 100.849 9.8 101.126 9.8H109.51C109.787 9.8 110.001 9.864 110.15 9.992C110.31 10.1093 110.39 10.2853 110.39 10.52C110.39 10.744 110.31 10.92 110.15 11.048C110.001 11.1653 109.787 11.224 109.51 11.224H106.23V20.312C106.23 20.568 106.145 20.776 105.974 20.936C105.814 21.0853 105.595 21.16 105.318 21.16ZM112.012 21.16C111.735 21.16 111.516 21.0853 111.356 20.936C111.196 20.7867 111.116 20.5787 111.116 20.312V14.104C111.116 12.7067 111.548 11.6133 112.412 10.824C113.287 10.0347 114.487 9.64 116.012 9.64C117.015 9.64 117.884 9.82133 118.62 10.184C119.356 10.536 119.916 11.048 120.3 11.72C120.695 12.392 120.892 13.1867 120.892 14.104V20.312C120.892 20.5787 120.812 20.7867 120.652 20.936C120.492 21.0853 120.273 21.16 119.996 21.16C119.719 21.16 119.495 21.0853 119.324 20.936C119.164 20.776 119.084 20.568 119.084 20.312V14.056C119.084 13.1067 118.817 12.376 118.284 11.864C117.751 11.352 116.993 11.096 116.012 11.096C115.031 11.096 114.268 11.3573 113.724 11.88C113.191 12.392 112.924 13.1173 112.924 14.056V20.312C112.924 20.568 112.839 20.776 112.668 20.936C112.508 21.0853 112.289 21.16 112.012 21.16ZM125.252 21C124.495 21 123.903 20.8027 123.476 20.408C123.06 20.0027 122.852 19.4427 122.852 18.728V12.024C122.852 11.3307 123.055 10.7867 123.46 10.392C123.865 9.99733 124.431 9.8 125.156 9.8H130.132C130.409 9.8 130.623 9.864 130.772 9.992C130.921 10.1093 130.996 10.2853 130.996 10.52C130.996 10.744 130.921 10.92 130.772 11.048C130.623 11.1653 130.409 11.224 130.132 11.224H125.412C125.177 11.224 124.996 11.2987 124.868 11.448C124.74 11.5973 124.676 11.8 124.676 12.056V14.568H128.916C129.193 14.568 129.407 14.632 129.556 14.76C129.705 14.8773 129.78 15.0533 129.78 15.288C129.78 15.512 129.705 15.688 129.556 15.816C129.407 15.9333 129.193 15.992 128.916 15.992H124.676V18.744C124.676 19 124.74 19.2027 124.868 19.352C124.996 19.5013 125.177 19.576 125.412 19.576H130.484C130.761 19.576 130.975 19.64 131.124 19.768C131.273 19.8853 131.348 20.0613 131.348 20.296C131.348 20.52 131.273 20.696 131.124 20.824C130.975 20.9413 130.761 21 130.484 21H125.252ZM133.133 12.04C133.133 11.3467 133.336 10.8027 133.741 10.408C134.146 10.0027 134.717 9.8 135.453 9.8H138.349C139.896 9.8 141.058 10.1093 141.837 10.728C142.626 11.3467 143.021 12.2587 143.021 13.464C143.021 14.6053 142.674 15.4907 141.981 16.12C141.288 16.7493 140.328 17.064 139.101 17.064L141.757 19.752C141.928 19.9227 142.013 20.1093 142.013 20.312C142.013 20.536 141.906 20.7387 141.693 20.92C141.49 21.0693 141.293 21.144 141.101 21.144C140.834 21.144 140.578 21.016 140.333 20.76L136.813 17.112H135.005V20.296C135.005 20.5627 134.914 20.776 134.733 20.936C134.562 21.0853 134.338 21.16 134.061 21.16C133.773 21.16 133.544 21.0853 133.373 20.936C133.213 20.776 133.133 20.5627 133.133 20.296V12.04ZM138.333 15.64C139.357 15.64 140.077 15.48 140.493 15.16C140.92 14.8293 141.133 14.264 141.133 13.464C141.133 12.6853 140.904 12.1253 140.445 11.784C139.986 11.4427 139.282 11.272 138.333 11.272H135.725C135.501 11.272 135.325 11.3467 135.197 11.496C135.069 11.6347 135.005 11.832 135.005 12.088V15.64H138.333ZM149.91 21.16C148.886 21.16 147.92 20.984 147.014 20.632C146.118 20.28 145.366 19.7893 144.758 19.16C144.619 19.032 144.55 18.8773 144.55 18.696C144.55 18.472 144.646 18.2747 144.838 18.104C144.976 17.9653 145.131 17.896 145.302 17.896C145.526 17.896 145.755 18.008 145.99 18.232C146.47 18.7013 147.046 19.064 147.718 19.32C148.4 19.5653 149.131 19.688 149.91 19.688C150.699 19.688 151.307 19.5493 151.734 19.272C152.171 18.9947 152.39 18.6053 152.39 18.104C152.39 17.6133 152.166 17.2187 151.718 16.92C151.27 16.6107 150.507 16.3387 149.43 16.104C147.84 15.7627 146.688 15.3147 145.974 14.76C145.259 14.1947 144.902 13.4693 144.902 12.584C144.902 12.008 145.083 11.496 145.446 11.048C145.819 10.6 146.336 10.2533 146.998 10.008C147.67 9.76267 148.443 9.64 149.318 9.64C150.299 9.64 151.179 9.80533 151.958 10.136C152.747 10.4667 153.328 10.9253 153.702 11.512C153.808 11.6827 153.862 11.848 153.862 12.008C153.862 12.2427 153.744 12.44 153.51 12.6C153.371 12.6853 153.232 12.728 153.094 12.728C152.966 12.728 152.838 12.696 152.71 12.632C152.582 12.568 152.475 12.4827 152.39 12.376C152.08 11.9707 151.654 11.6613 151.11 11.448C150.576 11.224 149.979 11.112 149.318 11.112C148.486 11.112 147.846 11.24 147.398 11.496C146.96 11.7413 146.742 12.104 146.742 12.584C146.742 13.032 146.955 13.4 147.382 13.688C147.808 13.9653 148.56 14.2267 149.638 14.472C151.27 14.856 152.443 15.3307 153.158 15.896C153.872 16.4613 154.23 17.1973 154.23 18.104C154.23 18.712 154.048 19.2507 153.686 19.72C153.334 20.1787 152.832 20.536 152.182 20.792C151.531 21.0373 150.774 21.16 149.91 21.16ZM156.888 21C156.557 21 156.274 20.8933 156.04 20.68C155.816 20.456 155.704 20.1947 155.704 19.896C155.704 19.5867 155.816 19.32 156.04 19.096C156.264 18.872 156.546 18.76 156.888 18.76C157.208 18.76 157.48 18.872 157.704 19.096C157.928 19.32 158.04 19.5867 158.04 19.896C158.04 20.1947 157.928 20.456 157.704 20.68C157.48 20.8933 157.208 21 156.888 21ZM160.766 11.768C160.425 11.768 160.142 11.672 159.918 11.48C159.705 11.2773 159.598 11.0213 159.598 10.712C159.598 10.4027 159.705 10.152 159.918 9.96C160.142 9.75733 160.425 9.656 160.766 9.656C161.108 9.656 161.39 9.75733 161.614 9.96C161.838 10.152 161.95 10.4027 161.95 10.712C161.95 11.0213 161.838 11.2773 161.614 11.48C161.39 11.672 161.108 11.768 160.766 11.768ZM160.766 21.16C160.489 21.16 160.27 21.0853 160.11 20.936C159.961 20.7867 159.886 20.5787 159.886 20.312V13.848C159.886 13.5813 159.961 13.3733 160.11 13.224C160.27 13.0747 160.489 13 160.766 13C161.044 13 161.262 13.0747 161.422 13.224C161.593 13.3733 161.678 13.5813 161.678 13.848V20.312C161.678 20.5787 161.593 20.7867 161.422 20.936C161.262 21.0853 161.044 21.16 160.766 21.16ZM168.077 21.16C167.149 21.16 166.333 20.9893 165.629 20.648C164.925 20.296 164.381 19.8107 163.997 19.192C163.623 18.5733 163.437 17.8693 163.437 17.08C163.437 16.2907 163.623 15.5867 163.997 14.968C164.381 14.3493 164.925 13.8693 165.629 13.528C166.333 13.176 167.149 13 168.077 13C169.005 13 169.821 13.176 170.525 13.528C171.229 13.8693 171.767 14.3493 172.141 14.968C172.525 15.5867 172.717 16.2907 172.717 17.08C172.717 17.8693 172.525 18.5733 172.141 19.192C171.767 19.8107 171.229 20.296 170.525 20.648C169.821 20.9893 169.005 21.16 168.077 21.16ZM168.077 19.72C168.941 19.72 169.629 19.4853 170.141 19.016C170.653 18.5467 170.909 17.9013 170.909 17.08C170.909 16.2587 170.653 15.6133 170.141 15.144C169.629 14.6747 168.941 14.44 168.077 14.44C167.202 14.44 166.509 14.6747 165.997 15.144C165.495 15.6133 165.245 16.2587 165.245 17.08C165.245 17.9013 165.495 18.5467 165.997 19.016C166.509 19.4853 167.202 19.72 168.077 19.72Z" fill="#8A6FF2"/>
<mask id="mask0_265_6934" style="mask-type:alpha" maskUnits="userSpaceOnUse" x="6" y="0" width="20" height="25">
<path d="M17.8385 3.70001H7.75076C7.00517 3.70001 6.40076 3.09559 6.40076 2.35001C6.40076 1.60442 7.00518 1 7.75076 1H19.5347C24.1476 1 25.3008 5.04392 25.3008 7.22729C25.3008 9.51983 23.9127 11.3757 23.0584 12.1399C22.5693 12.5267 22.0349 12.7401 21.51 12.869C20.2377 13.1817 18.9051 13.15 17.5949 13.15H7.72461C6.99346 13.15 6.40076 12.5573 6.40076 11.8262C6.40076 11.0951 6.99346 10.5023 7.7246 10.5023H19.1506C21.4571 10.5023 22.6008 8.53731 22.6008 7.22729C22.6008 5.91076 21.8808 5.01508 21.106 4.4497C20.1808 3.7746 18.9839 3.70001 17.8385 3.70001Z" fill="#D9D9D9"/>
<path d="M6.40076 22.4504V20.9505C6.40076 20.0946 7.09455 19.4008 7.95038 19.4008C8.80621 19.4008 9.5 20.0946 9.5 20.9505V22.4504C9.5 23.3062 8.80621 24 7.95038 24C7.09455 24 6.40076 23.3062 6.40076 22.4504Z" fill="#D9D9D9"/>
<path d="M17.8385 3.70001H7.75076C7.00517 3.70001 6.40076 3.09559 6.40076 2.35001C6.40076 1.60442 7.00518 1 7.75076 1H19.5347C24.1476 1 25.3008 5.04392 25.3008 7.22729C25.3008 9.51983 23.9127 11.3757 23.0584 12.1399C22.5693 12.5267 22.0349 12.7401 21.51 12.869C20.2377 13.1817 18.9051 13.15 17.5949 13.15H7.72461C6.99346 13.15 6.40076 12.5573 6.40076 11.8262C6.40076 11.0951 6.99346 10.5023 7.7246 10.5023H19.1506C21.4571 10.5023 22.6008 8.53731 22.6008 7.22729C22.6008 5.91076 21.8808 5.01508 21.106 4.4497C20.1808 3.7746 18.9839 3.70001 17.8385 3.70001Z" stroke="black" stroke-width="0.675003"/>
<path d="M6.40076 22.4504V20.9505C6.40076 20.0946 7.09455 19.4008 7.95038 19.4008C8.80621 19.4008 9.5 20.0946 9.5 20.9505V22.4504C9.5 23.3062 8.80621 24 7.95038 24C7.09455 24 6.40076 23.3062 6.40076 22.4504Z" stroke="black" stroke-width="0.675003"/>
</mask>
<g mask="url(#mask0_265_6934)">
<rect x="5.72522" y="0.324951" width="21.6001" height="27.0001" fill="#8A6FF2"/>
</g>
<mask id="mask1_265_6934" style="mask-type:alpha" maskUnits="userSpaceOnUse" x="0" y="5" width="21" height="24">
<path d="M1 26.0754V7.64984C1 6.58683 1.86174 5.7251 2.92474 5.7251H18.5501C19.2957 5.7251 19.9001 6.32952 19.9001 7.0751C19.9001 7.82069 19.2957 8.42511 18.5501 8.42511H4.98317C4.2745 8.42511 3.70001 8.9996 3.70001 9.70827V14.2295C3.70001 14.9381 4.2745 15.5126 4.98317 15.5126H18.5501C19.2957 15.5126 19.9001 16.1171 19.9001 16.8626C19.9001 17.6082 19.2957 18.2126 18.5501 18.2126H4.98317C4.2745 18.2126 3.70001 18.7871 3.70001 19.4958V24.017C3.70001 24.7257 4.2745 25.3002 4.98317 25.3002H18.5501C19.2957 25.3002 19.9001 25.9046 19.9001 26.6502C19.9001 27.3958 19.2957 28.0002 18.5501 28.0002H2.92474C1.86174 28.0002 1 27.1384 1 26.0754Z" fill="#D9D9D9" stroke="black" stroke-width="0.675003"/>
</mask>
<g mask="url(#mask1_265_6934)">
<rect x="-0.349609" y="3.02515" width="21.6001" height="27.0001" fill="#02E8A4"/>
</g>
</svg>
