<svg width="25" height="25" viewBox="0 0 25 25" fill="none" xmlns="http://www.w3.org/2000/svg">
<path d="M12.5275 25H12.4725C5.59524 25 0 19.4048 0 12.5275V12.4725C0 5.59523 5.59524 0 12.4725 0H12.5275C19.4048 0 25 5.59523 25 12.4725V12.5275C25 19.4048 19.4048 25 12.5275 25ZM12.4725 0.846224C6.0615 0.846224 0.846224 6.0615 0.846224 12.4725V12.5275C0.846224 18.9385 6.0615 24.1538 12.4725 24.1538H12.5275C18.9385 24.1538 24.1538 18.9385 24.1538 12.5275V12.4725C24.1538 6.0615 18.9385 0.846224 12.5275 0.846224H12.4725Z" fill="#BCBCBC"/>
<path d="M16.2374 5.33716H8.76352C6.69874 5.33716 5.01898 7.01691 5.01898 9.0817V15.9192C5.01898 17.984 6.69874 19.6637 8.76352 19.6637H16.2374C18.3022 19.6637 19.9819 17.984 19.9819 15.9192V9.0817C19.9819 7.01691 18.3022 5.33716 16.2374 5.33716ZM6.33994 9.0817C6.33994 7.74551 7.42734 6.6581 8.76352 6.6581H16.2374C17.5736 6.6581 18.661 7.74551 18.661 9.0817V15.9192C18.661 17.2554 17.5736 18.3428 16.2374 18.3428H8.76352C7.42734 18.3428 6.33994 17.2554 6.33994 15.9192V9.0817Z" fill="#BCBCBC"/>
<path d="M12.5003 15.9822C14.4204 15.9822 15.9834 14.4201 15.9834 12.4992C15.9834 10.5782 14.4213 9.01611 12.5003 9.01611C10.5794 9.01611 9.01727 10.5782 9.01727 12.4992C9.01727 14.4201 10.5794 15.9822 12.5003 15.9822ZM12.5003 10.3379C13.6927 10.3379 14.6624 11.3077 14.6624 12.5C14.6624 13.6923 13.6927 14.6621 12.5003 14.6621C11.308 14.6621 10.3382 13.6923 10.3382 12.5C10.3382 11.3077 11.308 10.3379 12.5003 10.3379Z" fill="#BCBCBC"/>
<path d="M16.306 9.57931C16.823 9.57931 17.2444 9.15875 17.2444 8.64086C17.2444 8.12297 16.8238 7.70239 16.306 7.70239C15.7881 7.70239 15.3675 8.12297 15.3675 8.64086C15.3675 9.15875 15.7881 9.57931 16.306 9.57931Z" fill="#BCBCBC"/>
</svg>
