<svg width="25" height="25" viewBox="0 0 25 25" fill="none" xmlns="http://www.w3.org/2000/svg">
<path d="M12.5275 25H12.4725C5.59524 25 0 19.4048 0 12.5275V12.4725C0 5.59524 5.59524 0 12.4725 0H12.5275C19.4048 0 25 5.59524 25 12.4725V12.5275C25 19.4048 19.4048 25 12.5275 25ZM12.4725 0.846224C6.06151 0.846224 0.846224 6.06151 0.846224 12.4725V12.5275C0.846224 18.9385 6.06151 24.1538 12.4725 24.1538H12.5275C18.9385 24.1538 24.1538 18.9385 24.1538 12.5275V12.4725C24.1538 6.06151 18.9385 0.846224 12.5275 0.846224H12.4725Z" fill="#BCBCBC"/>
<path d="M6.1832 8.45114C5.86502 8.15581 5.70679 7.79025 5.70679 7.35529C5.70679 6.92033 5.86587 6.53867 6.1832 6.24249C6.50138 5.94716 6.91096 5.79907 7.41277 5.79907C7.91458 5.79907 8.30808 5.94716 8.62541 6.24249C8.94359 6.53782 9.10183 6.90933 9.10183 7.35529C9.10183 7.80125 8.94275 8.15581 8.62541 8.45114C8.30723 8.74648 7.90358 8.89457 7.41277 8.89457C6.92196 8.89457 6.50138 8.74648 6.1832 8.45114ZM8.83443 10.1453V19.1999H5.97334V10.1453H8.83443Z" fill="#BCBCBC"/>
<path d="M18.3588 11.0396C18.9825 11.7166 19.2939 12.6458 19.2939 13.8288V19.0398H16.5767V14.1961C16.5767 13.5995 16.4219 13.1357 16.113 12.8057C15.8041 12.4757 15.3878 12.3098 14.8665 12.3098C14.3452 12.3098 13.9289 12.4748 13.62 12.8057C13.3111 13.1357 13.1563 13.5995 13.1563 14.1961V19.0398H10.423V10.1198H13.1563V11.3028C13.433 10.9085 13.8062 10.5971 14.275 10.3677C14.7438 10.1384 15.271 10.0242 15.8574 10.0242C16.9017 10.0242 17.736 10.3627 18.3588 11.0396Z" fill="#BCBCBC"/>
</svg>
