<svg width="173" height="27" viewBox="0 0 173 27" fill="none" xmlns="http://www.w3.org/2000/svg">
<path d="M33.424 18.9999C32.6667 18.9999 32.0747 18.8026 31.648 18.4079C31.232 18.0026 31.024 17.4426 31.024 16.7279V10.0239C31.024 9.33056 31.2267 8.78656 31.632 8.39189C32.0373 7.99723 32.6027 7.79989 33.328 7.79989H38.304C38.5813 7.79989 38.7947 7.86389 38.944 7.99189C39.0933 8.10923 39.168 8.28523 39.168 8.51989C39.168 8.74389 39.0933 8.91989 38.944 9.04789C38.7947 9.16523 38.5813 9.22389 38.304 9.22389H33.584C33.3493 9.22389 33.168 9.29856 33.04 9.44789C32.912 9.59723 32.848 9.79989 32.848 10.0559V12.5679H37.088C37.3653 12.5679 37.5787 12.6319 37.728 12.7599C37.8773 12.8772 37.952 13.0532 37.952 13.2879C37.952 13.5119 37.8773 13.6879 37.728 13.8159C37.5787 13.9332 37.3653 13.9919 37.088 13.9919H32.848V16.7439C32.848 16.9999 32.912 17.2026 33.04 17.3519C33.168 17.5012 33.3493 17.5759 33.584 17.5759H38.656C38.9333 17.5759 39.1467 17.6399 39.296 17.7679C39.4453 17.8852 39.52 18.0612 39.52 18.2959C39.52 18.5199 39.4453 18.6959 39.296 18.8239C39.1467 18.9412 38.9333 18.9999 38.656 18.9999H33.424Z" fill="#02E8A4"/>
<path d="M41.3049 10.0399C41.3049 9.34656 41.5075 8.80256 41.9129 8.40789C42.3182 8.00256 42.8889 7.79989 43.6249 7.79989H46.5209C48.0675 7.79989 49.2302 8.10923 50.0089 8.72789C50.7982 9.34656 51.1929 10.2586 51.1929 11.4639C51.1929 12.6052 50.8462 13.4906 50.1529 14.1199C49.4595 14.7492 48.4995 15.0639 47.2729 15.0639L49.9289 17.7519C50.0995 17.9226 50.1849 18.1092 50.1849 18.3119C50.1849 18.5359 50.0782 18.7386 49.8649 18.9199C49.6622 19.0692 49.4649 19.1439 49.2729 19.1439C49.0062 19.1439 48.7502 19.0159 48.5049 18.7599L44.9849 15.1119H43.1769V18.2959C43.1769 18.5626 43.0862 18.7759 42.9049 18.9359C42.7342 19.0852 42.5102 19.1599 42.2329 19.1599C41.9449 19.1599 41.7155 19.0852 41.5449 18.9359C41.3849 18.7759 41.3049 18.5626 41.3049 18.2959V10.0399ZM46.5049 13.6399C47.5289 13.6399 48.2489 13.4799 48.6649 13.1599C49.0915 12.8292 49.3049 12.2639 49.3049 11.4639C49.3049 10.6852 49.0755 10.1252 48.6169 9.78389C48.1582 9.44256 47.4542 9.27189 46.5049 9.27189H43.8969C43.6729 9.27189 43.4969 9.34656 43.3689 9.49589C43.2409 9.63456 43.1769 9.83189 43.1769 10.0879V13.6399H46.5049Z" fill="#02E8A4"/>
<path d="M53.7775 19.1439C53.5002 19.1439 53.2815 19.0692 53.1215 18.9199C52.9615 18.7706 52.8815 18.5626 52.8815 18.2959V12.4719C52.8815 10.9572 53.3135 9.77323 54.1775 8.91989C55.0415 8.06656 56.2415 7.63989 57.7775 7.63989C58.7802 7.63989 59.6495 7.83723 60.3855 8.23189C61.1215 8.61589 61.6815 9.17056 62.0655 9.89589C62.4602 10.6212 62.6575 11.4799 62.6575 12.4719V18.2959C62.6575 18.5626 62.5775 18.7706 62.4175 18.9199C62.2575 19.0692 62.0388 19.1439 61.7615 19.1439C61.4842 19.1439 61.2602 19.0692 61.0895 18.9199C60.9188 18.7599 60.8335 18.5519 60.8335 18.2959V15.3519H54.7055V18.2959C54.7055 18.5519 54.6202 18.7599 54.4495 18.9199C54.2788 19.0692 54.0548 19.1439 53.7775 19.1439ZM60.8335 13.9279V12.4239C60.8335 11.3359 60.5722 10.5092 60.0495 9.94389C59.5375 9.37856 58.7802 9.09589 57.7775 9.09589C56.7642 9.09589 55.9962 9.37856 55.4735 9.94389C54.9615 10.4986 54.7055 11.3252 54.7055 12.4239V13.9279H60.8335Z" fill="#02E8A4"/>
<path d="M65.92 19.1599C65.6427 19.1599 65.424 19.0852 65.264 18.9359C65.104 18.7866 65.024 18.5786 65.024 18.3119V10.0239C65.024 9.33056 65.2267 8.78656 65.632 8.39189C66.0373 7.99723 66.6027 7.79989 67.328 7.79989H70.048C71.6267 7.79989 72.8213 8.13056 73.632 8.79189C74.4533 9.45323 74.864 10.4292 74.864 11.7199C74.864 12.9892 74.4587 13.9546 73.648 14.6159C72.848 15.2666 71.6747 15.5919 70.128 15.5919H66.848V18.3119C66.848 18.5679 66.7627 18.7759 66.592 18.9359C66.4213 19.0852 66.1973 19.1599 65.92 19.1599ZM70.112 14.1519C72.0533 14.1519 73.024 13.3412 73.024 11.7199C73.024 10.8666 72.7787 10.2372 72.288 9.83189C71.808 9.42656 71.088 9.22389 70.128 9.22389H67.584C67.3493 9.22389 67.168 9.29856 67.04 9.44789C66.912 9.59723 66.848 9.79989 66.848 10.0559V14.1519H70.112Z" fill="#8A6FF2"/>
<path d="M77.4806 19.1439C77.2033 19.1439 76.9846 19.0692 76.8246 18.9199C76.6646 18.7706 76.5846 18.5626 76.5846 18.2959V12.4719C76.5846 10.9572 77.0166 9.77323 77.8806 8.91989C78.7446 8.06656 79.9446 7.63989 81.4806 7.63989C82.4833 7.63989 83.3526 7.83723 84.0886 8.23189C84.8246 8.61589 85.3846 9.17056 85.7686 9.89589C86.1633 10.6212 86.3606 11.4799 86.3606 12.4719V18.2959C86.3606 18.5626 86.2806 18.7706 86.1206 18.9199C85.9606 19.0692 85.742 19.1439 85.4646 19.1439C85.1873 19.1439 84.9633 19.0692 84.7926 18.9199C84.622 18.7599 84.5366 18.5519 84.5366 18.2959V15.3519H78.4086V18.2959C78.4086 18.5519 78.3233 18.7599 78.1526 18.9199C77.982 19.0692 77.758 19.1439 77.4806 19.1439ZM84.5366 13.9279V12.4239C84.5366 11.3359 84.2753 10.5092 83.7526 9.94389C83.2406 9.37856 82.4833 9.09589 81.4806 9.09589C80.4673 9.09589 79.6993 9.37856 79.1766 9.94389C78.6646 10.4986 78.4086 11.3252 78.4086 12.4239V13.9279H84.5366Z" fill="#8A6FF2"/>
<path d="M88.3049 10.0399C88.3049 9.34656 88.5075 8.80256 88.9129 8.40789C89.3182 8.00256 89.8889 7.79989 90.6249 7.79989H93.5209C95.0675 7.79989 96.2302 8.10923 97.0089 8.72789C97.7982 9.34656 98.1929 10.2586 98.1929 11.4639C98.1929 12.6052 97.8462 13.4906 97.1529 14.1199C96.4595 14.7492 95.4995 15.0639 94.2729 15.0639L96.9289 17.7519C97.0995 17.9226 97.1849 18.1092 97.1849 18.3119C97.1849 18.5359 97.0782 18.7386 96.8649 18.9199C96.6622 19.0692 96.4649 19.1439 96.2729 19.1439C96.0062 19.1439 95.7502 19.0159 95.5049 18.7599L91.9849 15.1119H90.1769V18.2959C90.1769 18.5626 90.0862 18.7759 89.9049 18.9359C89.7342 19.0852 89.5102 19.1599 89.2329 19.1599C88.9449 19.1599 88.7155 19.0852 88.5449 18.9359C88.3849 18.7759 88.3049 18.5626 88.3049 18.2959V10.0399ZM93.5049 13.6399C94.5289 13.6399 95.2489 13.4799 95.6649 13.1599C96.0915 12.8292 96.3049 12.2639 96.3049 11.4639C96.3049 10.6852 96.0755 10.1252 95.6169 9.78389C95.1582 9.44256 94.4542 9.27189 93.5049 9.27189H90.8969C90.6729 9.27189 90.4969 9.34656 90.3689 9.49589C90.2409 9.63456 90.1769 9.83189 90.1769 10.0879V13.6399H93.5049Z" fill="#8A6FF2"/>
<path d="M104.318 19.1599C104.041 19.1599 103.817 19.0852 103.646 18.9359C103.486 18.7866 103.406 18.5786 103.406 18.3119V9.22389H100.126C99.8487 9.22389 99.6353 9.16523 99.486 9.04789C99.3367 8.91989 99.262 8.74389 99.262 8.51989C99.262 8.28523 99.3367 8.10923 99.486 7.99189C99.6353 7.86389 99.8487 7.79989 100.126 7.79989H108.51C108.787 7.79989 109.001 7.86389 109.15 7.99189C109.31 8.10923 109.39 8.28523 109.39 8.51989C109.39 8.74389 109.31 8.91989 109.15 9.04789C109.001 9.16523 108.787 9.22389 108.51 9.22389H105.23V18.3119C105.23 18.5679 105.145 18.7759 104.974 18.9359C104.814 19.0852 104.595 19.1599 104.318 19.1599Z" fill="#8A6FF2"/>
<path d="M111.012 19.1599C110.735 19.1599 110.516 19.0852 110.356 18.9359C110.196 18.7866 110.116 18.5786 110.116 18.3119V12.1039C110.116 10.7066 110.548 9.61323 111.412 8.82389C112.287 8.03456 113.487 7.63989 115.012 7.63989C116.015 7.63989 116.884 7.82123 117.62 8.18389C118.356 8.53589 118.916 9.04789 119.3 9.71989C119.695 10.3919 119.892 11.1866 119.892 12.1039V18.3119C119.892 18.5786 119.812 18.7866 119.652 18.9359C119.492 19.0852 119.273 19.1599 118.996 19.1599C118.719 19.1599 118.495 19.0852 118.324 18.9359C118.164 18.7759 118.084 18.5679 118.084 18.3119V12.0559C118.084 11.1066 117.817 10.3759 117.284 9.86389C116.751 9.35189 115.993 9.09589 115.012 9.09589C114.031 9.09589 113.268 9.35723 112.724 9.87989C112.191 10.3919 111.924 11.1172 111.924 12.0559V18.3119C111.924 18.5679 111.839 18.7759 111.668 18.9359C111.508 19.0852 111.289 19.1599 111.012 19.1599Z" fill="#8A6FF2"/>
<path d="M124.252 18.9999C123.495 18.9999 122.903 18.8026 122.476 18.4079C122.06 18.0026 121.852 17.4426 121.852 16.7279V10.0239C121.852 9.33056 122.055 8.78656 122.46 8.39189C122.865 7.99723 123.431 7.79989 124.156 7.79989H129.132C129.409 7.79989 129.623 7.86389 129.772 7.99189C129.921 8.10923 129.996 8.28523 129.996 8.51989C129.996 8.74389 129.921 8.91989 129.772 9.04789C129.623 9.16523 129.409 9.22389 129.132 9.22389H124.412C124.177 9.22389 123.996 9.29856 123.868 9.44789C123.74 9.59723 123.676 9.79989 123.676 10.0559V12.5679H127.916C128.193 12.5679 128.407 12.6319 128.556 12.7599C128.705 12.8772 128.78 13.0532 128.78 13.2879C128.78 13.5119 128.705 13.6879 128.556 13.8159C128.407 13.9332 128.193 13.9919 127.916 13.9919H123.676V16.7439C123.676 16.9999 123.74 17.2026 123.868 17.3519C123.996 17.5012 124.177 17.5759 124.412 17.5759H129.484C129.761 17.5759 129.975 17.6399 130.124 17.7679C130.273 17.8852 130.348 18.0612 130.348 18.2959C130.348 18.5199 130.273 18.6959 130.124 18.8239C129.975 18.9412 129.761 18.9999 129.484 18.9999H124.252Z" fill="#8A6FF2"/>
<path d="M132.133 10.0399C132.133 9.34656 132.336 8.80256 132.741 8.40789C133.146 8.00256 133.717 7.79989 134.453 7.79989H137.349C138.896 7.79989 140.058 8.10923 140.837 8.72789C141.626 9.34656 142.021 10.2586 142.021 11.4639C142.021 12.6052 141.674 13.4906 140.981 14.1199C140.288 14.7492 139.328 15.0639 138.101 15.0639L140.757 17.7519C140.928 17.9226 141.013 18.1092 141.013 18.3119C141.013 18.5359 140.906 18.7386 140.693 18.9199C140.49 19.0692 140.293 19.1439 140.101 19.1439C139.834 19.1439 139.578 19.0159 139.333 18.7599L135.813 15.1119H134.005V18.2959C134.005 18.5626 133.914 18.7759 133.733 18.9359C133.562 19.0852 133.338 19.1599 133.061 19.1599C132.773 19.1599 132.544 19.0852 132.373 18.9359C132.213 18.7759 132.133 18.5626 132.133 18.2959V10.0399ZM137.333 13.6399C138.357 13.6399 139.077 13.4799 139.493 13.1599C139.92 12.8292 140.133 12.2639 140.133 11.4639C140.133 10.6852 139.904 10.1252 139.445 9.78389C138.986 9.44256 138.282 9.27189 137.333 9.27189H134.725C134.501 9.27189 134.325 9.34656 134.197 9.49589C134.069 9.63456 134.005 9.83189 134.005 10.0879V13.6399H137.333Z" fill="#8A6FF2"/>
<path d="M148.91 19.1599C147.886 19.1599 146.92 18.9839 146.014 18.6319C145.118 18.2799 144.366 17.7892 143.758 17.1599C143.619 17.0319 143.55 16.8772 143.55 16.6959C143.55 16.4719 143.646 16.2746 143.838 16.1039C143.976 15.9652 144.131 15.8959 144.302 15.8959C144.526 15.8959 144.755 16.0079 144.99 16.2319C145.47 16.7012 146.046 17.0639 146.718 17.3199C147.4 17.5652 148.131 17.6879 148.91 17.6879C149.699 17.6879 150.307 17.5492 150.734 17.2719C151.171 16.9946 151.39 16.6052 151.39 16.1039C151.39 15.6132 151.166 15.2186 150.718 14.9199C150.27 14.6106 149.507 14.3386 148.43 14.1039C146.84 13.7626 145.688 13.3146 144.974 12.7599C144.259 12.1946 143.902 11.4692 143.902 10.5839C143.902 10.0079 144.083 9.49589 144.446 9.04789C144.819 8.59989 145.336 8.25323 145.998 8.00789C146.67 7.76256 147.443 7.63989 148.318 7.63989C149.299 7.63989 150.179 7.80523 150.958 8.13589C151.747 8.46656 152.328 8.92523 152.702 9.51189C152.808 9.68256 152.862 9.84789 152.862 10.0079C152.862 10.2426 152.744 10.4399 152.51 10.5999C152.371 10.6852 152.232 10.7279 152.094 10.7279C151.966 10.7279 151.838 10.6959 151.71 10.6319C151.582 10.5679 151.475 10.4826 151.39 10.3759C151.08 9.97056 150.654 9.66123 150.11 9.44789C149.576 9.22389 148.979 9.11189 148.318 9.11189C147.486 9.11189 146.846 9.23989 146.398 9.49589C145.96 9.74123 145.742 10.1039 145.742 10.5839C145.742 11.0319 145.955 11.3999 146.382 11.6879C146.808 11.9652 147.56 12.2266 148.638 12.4719C150.27 12.8559 151.443 13.3306 152.158 13.8959C152.872 14.4612 153.23 15.1972 153.23 16.1039C153.23 16.7119 153.048 17.2506 152.686 17.7199C152.334 18.1786 151.832 18.5359 151.182 18.7919C150.531 19.0372 149.774 19.1599 148.91 19.1599Z" fill="#8A6FF2"/>
<path d="M155.888 18.9999C155.557 18.9999 155.274 18.8932 155.04 18.6799C154.816 18.4559 154.704 18.1946 154.704 17.8959C154.704 17.5866 154.816 17.3199 155.04 17.0959C155.264 16.8719 155.546 16.7599 155.888 16.7599C156.208 16.7599 156.48 16.8719 156.704 17.0959C156.928 17.3199 157.04 17.5866 157.04 17.8959C157.04 18.1946 156.928 18.4559 156.704 18.6799C156.48 18.8932 156.208 18.9999 155.888 18.9999Z" fill="#8A6FF2"/>
<path d="M159.766 9.76789C159.425 9.76789 159.142 9.67189 158.918 9.47989C158.705 9.27723 158.598 9.02123 158.598 8.71189C158.598 8.40256 158.705 8.15189 158.918 7.95989C159.142 7.75723 159.425 7.65589 159.766 7.65589C160.108 7.65589 160.39 7.75723 160.614 7.95989C160.838 8.15189 160.95 8.40256 160.95 8.71189C160.95 9.02123 160.838 9.27723 160.614 9.47989C160.39 9.67189 160.108 9.76789 159.766 9.76789ZM159.766 19.1599C159.489 19.1599 159.27 19.0852 159.11 18.9359C158.961 18.7866 158.886 18.5786 158.886 18.3119V11.8479C158.886 11.5812 158.961 11.3732 159.11 11.2239C159.27 11.0746 159.489 10.9999 159.766 10.9999C160.044 10.9999 160.262 11.0746 160.422 11.2239C160.593 11.3732 160.678 11.5812 160.678 11.8479V18.3119C160.678 18.5786 160.593 18.7866 160.422 18.9359C160.262 19.0852 160.044 19.1599 159.766 19.1599Z" fill="#8A6FF2"/>
<path d="M167.077 19.1599C166.149 19.1599 165.333 18.9892 164.629 18.6479C163.925 18.2959 163.381 17.8106 162.997 17.1919C162.623 16.5732 162.437 15.8692 162.437 15.0799C162.437 14.2906 162.623 13.5866 162.997 12.9679C163.381 12.3492 163.925 11.8692 164.629 11.5279C165.333 11.1759 166.149 10.9999 167.077 10.9999C168.005 10.9999 168.821 11.1759 169.525 11.5279C170.229 11.8692 170.767 12.3492 171.141 12.9679C171.525 13.5866 171.717 14.2906 171.717 15.0799C171.717 15.8692 171.525 16.5732 171.141 17.1919C170.767 17.8106 170.229 18.2959 169.525 18.6479C168.821 18.9892 168.005 19.1599 167.077 19.1599ZM167.077 17.7199C167.941 17.7199 168.629 17.4852 169.141 17.0159C169.653 16.5466 169.909 15.9012 169.909 15.0799C169.909 14.2586 169.653 13.6132 169.141 13.1439C168.629 12.6746 167.941 12.4399 167.077 12.4399C166.202 12.4399 165.509 12.6746 164.997 13.1439C164.495 13.6132 164.245 14.2586 164.245 15.0799C164.245 15.9012 164.495 16.5466 164.997 17.0159C165.509 17.4852 166.202 17.7199 167.077 17.7199Z" fill="#8A6FF2"/>
<path d="M6.97447 0C5.98 0 5.17382 0.779096 5.17382 1.74016C5.17382 2.70122 5.98 3.48032 6.97447 3.48032H17.0777C18.2298 3.48032 19.2894 3.56107 20.0857 4.12262C20.788 4.61783 21.3987 5.36856 21.3987 6.4608C21.3987 7.54469 20.4004 9.19717 18.3918 9.19717H6.94828C5.96827 9.19717 5.17382 9.96493 5.17382 10.912C5.17382 11.8591 5.96827 12.6269 6.94828 12.6269H15.4139H18.7231C20.0233 12.5135 20.9159 12.4889 22.4328 11.5381C22.8181 11.2966 23.1677 10.9985 23.4494 10.6414C24.2241 9.65932 25 8.18549 25 6.4608C25 5.34336 24.6975 3.74528 23.7685 2.41248C22.823 1.05614 21.2429 0 18.7765 0H6.97447Z" fill="#8A6FF2"/>
<path d="M5.17382 21.1892V19.8108C5.17382 18.8107 5.98456 18 6.98466 18C7.98476 18 8.7955 18.8107 8.7955 19.8108V21.1892C8.7955 22.1893 7.98476 23 6.98466 23C5.98456 23 5.17382 22.1893 5.17382 21.1892Z" fill="#8A6FF2"/>
<path d="M3.00681 4.57349C1.3462 4.57349 0 5.87445 0 7.47927V24.0944C0 25.6992 1.34619 27.0002 3.0068 27.0002H18.0255C19.02 27.0002 19.8262 26.2211 19.8262 25.26C19.8262 24.299 19.02 23.5199 18.0255 23.5199H4.85821C4.16404 23.5199 3.60131 22.9761 3.60131 22.3052V18.7417C3.60131 18.0708 4.16404 17.527 4.85821 17.527H18.0255C19.02 17.527 19.8262 16.7479 19.8262 15.7868C19.8262 14.8258 19.02 14.0467 18.0255 14.0467H4.85821C4.16404 14.0467 3.60131 13.5029 3.60131 12.832V9.26848C3.60131 8.59763 4.16404 8.0538 4.85821 8.0538H18.0255C19.02 8.0538 19.8262 7.27471 19.8262 6.31365C19.8262 5.35258 19.02 4.57349 18.0255 4.57349H3.00681Z" fill="#02E8A4"/>
</svg>
