<svg width="174" height="29" viewBox="0 0 174 29" fill="none" xmlns="http://www.w3.org/2000/svg">
<path d="M34.424 20C33.6667 20 33.0747 19.8027 32.648 19.408C32.232 19.0027 32.024 18.4427 32.024 17.728V11.024C32.024 10.3307 32.2267 9.78667 32.632 9.392C33.0373 8.99733 33.6027 8.8 34.328 8.8H39.304C39.5813 8.8 39.7947 8.864 39.944 8.992C40.0933 9.10933 40.168 9.28533 40.168 9.52C40.168 9.744 40.0933 9.92 39.944 10.048C39.7947 10.1653 39.5813 10.224 39.304 10.224H34.584C34.3493 10.224 34.168 10.2987 34.04 10.448C33.912 10.5973 33.848 10.8 33.848 11.056V13.568H38.088C38.3653 13.568 38.5787 13.632 38.728 13.76C38.8773 13.8773 38.952 14.0533 38.952 14.288C38.952 14.512 38.8773 14.688 38.728 14.816C38.5787 14.9333 38.3653 14.992 38.088 14.992H33.848V17.744C33.848 18 33.912 18.2027 34.04 18.352C34.168 18.5013 34.3493 18.576 34.584 18.576H39.656C39.9333 18.576 40.1467 18.64 40.296 18.768C40.4453 18.8853 40.52 19.0613 40.52 19.296C40.52 19.52 40.4453 19.696 40.296 19.824C40.1467 19.9413 39.9333 20 39.656 20H34.424ZM42.3049 11.04C42.3049 10.3467 42.5075 9.80267 42.9129 9.408C43.3182 9.00267 43.8889 8.8 44.6249 8.8H47.5209C49.0675 8.8 50.2302 9.10933 51.0089 9.728C51.7982 10.3467 52.1929 11.2587 52.1929 12.464C52.1929 13.6053 51.8462 14.4907 51.1529 15.12C50.4595 15.7493 49.4995 16.064 48.2729 16.064L50.9289 18.752C51.0995 18.9227 51.1849 19.1093 51.1849 19.312C51.1849 19.536 51.0782 19.7387 50.8649 19.92C50.6622 20.0693 50.4649 20.144 50.2729 20.144C50.0062 20.144 49.7502 20.016 49.5049 19.76L45.9849 16.112H44.1769V19.296C44.1769 19.5627 44.0862 19.776 43.9049 19.936C43.7342 20.0853 43.5102 20.16 43.2329 20.16C42.9449 20.16 42.7155 20.0853 42.5449 19.936C42.3849 19.776 42.3049 19.5627 42.3049 19.296V11.04ZM47.5049 14.64C48.5289 14.64 49.2489 14.48 49.6649 14.16C50.0915 13.8293 50.3049 13.264 50.3049 12.464C50.3049 11.6853 50.0755 11.1253 49.6169 10.784C49.1582 10.4427 48.4542 10.272 47.5049 10.272H44.8969C44.6729 10.272 44.4969 10.3467 44.3689 10.496C44.2409 10.6347 44.1769 10.832 44.1769 11.088V14.64H47.5049ZM54.7775 20.144C54.5002 20.144 54.2815 20.0693 54.1215 19.92C53.9615 19.7707 53.8815 19.5627 53.8815 19.296V13.472C53.8815 11.9573 54.3135 10.7733 55.1775 9.92C56.0415 9.06667 57.2415 8.64 58.7775 8.64C59.7802 8.64 60.6495 8.83733 61.3855 9.232C62.1215 9.616 62.6815 10.1707 63.0655 10.896C63.4602 11.6213 63.6575 12.48 63.6575 13.472V19.296C63.6575 19.5627 63.5775 19.7707 63.4175 19.92C63.2575 20.0693 63.0388 20.144 62.7615 20.144C62.4842 20.144 62.2602 20.0693 62.0895 19.92C61.9188 19.76 61.8335 19.552 61.8335 19.296V16.352H55.7055V19.296C55.7055 19.552 55.6202 19.76 55.4495 19.92C55.2788 20.0693 55.0548 20.144 54.7775 20.144ZM61.8335 14.928V13.424C61.8335 12.336 61.5722 11.5093 61.0495 10.944C60.5375 10.3787 59.7802 10.096 58.7775 10.096C57.7642 10.096 56.9962 10.3787 56.4735 10.944C55.9615 11.4987 55.7055 12.3253 55.7055 13.424V14.928H61.8335Z" fill="#02E8A4"/>
<path d="M66.92 20.16C66.6427 20.16 66.424 20.0853 66.264 19.936C66.104 19.7867 66.024 19.5787 66.024 19.312V11.024C66.024 10.3307 66.2267 9.78667 66.632 9.392C67.0373 8.99733 67.6027 8.8 68.328 8.8H71.048C72.6267 8.8 73.8213 9.13067 74.632 9.792C75.4533 10.4533 75.864 11.4293 75.864 12.72C75.864 13.9893 75.4587 14.9547 74.648 15.616C73.848 16.2667 72.6747 16.592 71.128 16.592H67.848V19.312C67.848 19.568 67.7627 19.776 67.592 19.936C67.4213 20.0853 67.1973 20.16 66.92 20.16ZM71.112 15.152C73.0533 15.152 74.024 14.3413 74.024 12.72C74.024 11.8667 73.7787 11.2373 73.288 10.832C72.808 10.4267 72.088 10.224 71.128 10.224H68.584C68.3493 10.224 68.168 10.2987 68.04 10.448C67.912 10.5973 67.848 10.8 67.848 11.056V15.152H71.112ZM78.4806 20.144C78.2033 20.144 77.9846 20.0693 77.8246 19.92C77.6646 19.7707 77.5846 19.5627 77.5846 19.296V13.472C77.5846 11.9573 78.0166 10.7733 78.8806 9.92C79.7446 9.06667 80.9446 8.64 82.4806 8.64C83.4833 8.64 84.3526 8.83733 85.0886 9.232C85.8246 9.616 86.3846 10.1707 86.7686 10.896C87.1633 11.6213 87.3606 12.48 87.3606 13.472V19.296C87.3606 19.5627 87.2806 19.7707 87.1206 19.92C86.9606 20.0693 86.742 20.144 86.4646 20.144C86.1873 20.144 85.9633 20.0693 85.7926 19.92C85.622 19.76 85.5366 19.552 85.5366 19.296V16.352H79.4086V19.296C79.4086 19.552 79.3233 19.76 79.1526 19.92C78.982 20.0693 78.758 20.144 78.4806 20.144ZM85.5366 14.928V13.424C85.5366 12.336 85.2753 11.5093 84.7526 10.944C84.2406 10.3787 83.4833 10.096 82.4806 10.096C81.4673 10.096 80.6993 10.3787 80.1766 10.944C79.6646 11.4987 79.4086 12.3253 79.4086 13.424V14.928H85.5366ZM89.3049 11.04C89.3049 10.3467 89.5075 9.80267 89.9129 9.408C90.3182 9.00267 90.8889 8.8 91.6249 8.8H94.5209C96.0675 8.8 97.2302 9.10933 98.0089 9.728C98.7982 10.3467 99.1929 11.2587 99.1929 12.464C99.1929 13.6053 98.8462 14.4907 98.1529 15.12C97.4595 15.7493 96.4995 16.064 95.2729 16.064L97.9289 18.752C98.0995 18.9227 98.1849 19.1093 98.1849 19.312C98.1849 19.536 98.0782 19.7387 97.8649 19.92C97.6622 20.0693 97.4649 20.144 97.2729 20.144C97.0062 20.144 96.7502 20.016 96.5049 19.76L92.9849 16.112H91.1769V19.296C91.1769 19.5627 91.0862 19.776 90.9049 19.936C90.7342 20.0853 90.5102 20.16 90.2329 20.16C89.9449 20.16 89.7155 20.0853 89.5449 19.936C89.3849 19.776 89.3049 19.5627 89.3049 19.296V11.04ZM94.5049 14.64C95.5289 14.64 96.2489 14.48 96.6649 14.16C97.0915 13.8293 97.3049 13.264 97.3049 12.464C97.3049 11.6853 97.0755 11.1253 96.6169 10.784C96.1582 10.4427 95.4542 10.272 94.5049 10.272H91.8969C91.6729 10.272 91.4969 10.3467 91.3689 10.496C91.2409 10.6347 91.1769 10.832 91.1769 11.088V14.64H94.5049ZM105.318 20.16C105.041 20.16 104.817 20.0853 104.646 19.936C104.486 19.7867 104.406 19.5787 104.406 19.312V10.224H101.126C100.849 10.224 100.635 10.1653 100.486 10.048C100.337 9.92 100.262 9.744 100.262 9.52C100.262 9.28533 100.337 9.10933 100.486 8.992C100.635 8.864 100.849 8.8 101.126 8.8H109.51C109.787 8.8 110.001 8.864 110.15 8.992C110.31 9.10933 110.39 9.28533 110.39 9.52C110.39 9.744 110.31 9.92 110.15 10.048C110.001 10.1653 109.787 10.224 109.51 10.224H106.23V19.312C106.23 19.568 106.145 19.776 105.974 19.936C105.814 20.0853 105.595 20.16 105.318 20.16ZM112.012 20.16C111.735 20.16 111.516 20.0853 111.356 19.936C111.196 19.7867 111.116 19.5787 111.116 19.312V13.104C111.116 11.7067 111.548 10.6133 112.412 9.824C113.287 9.03467 114.487 8.64 116.012 8.64C117.015 8.64 117.884 8.82133 118.62 9.184C119.356 9.536 119.916 10.048 120.3 10.72C120.695 11.392 120.892 12.1867 120.892 13.104V19.312C120.892 19.5787 120.812 19.7867 120.652 19.936C120.492 20.0853 120.273 20.16 119.996 20.16C119.719 20.16 119.495 20.0853 119.324 19.936C119.164 19.776 119.084 19.568 119.084 19.312V13.056C119.084 12.1067 118.817 11.376 118.284 10.864C117.751 10.352 116.993 10.096 116.012 10.096C115.031 10.096 114.268 10.3573 113.724 10.88C113.191 11.392 112.924 12.1173 112.924 13.056V19.312C112.924 19.568 112.839 19.776 112.668 19.936C112.508 20.0853 112.289 20.16 112.012 20.16ZM125.252 20C124.495 20 123.903 19.8027 123.476 19.408C123.06 19.0027 122.852 18.4427 122.852 17.728V11.024C122.852 10.3307 123.055 9.78667 123.46 9.392C123.865 8.99733 124.431 8.8 125.156 8.8H130.132C130.409 8.8 130.623 8.864 130.772 8.992C130.921 9.10933 130.996 9.28533 130.996 9.52C130.996 9.744 130.921 9.92 130.772 10.048C130.623 10.1653 130.409 10.224 130.132 10.224H125.412C125.177 10.224 124.996 10.2987 124.868 10.448C124.74 10.5973 124.676 10.8 124.676 11.056V13.568H128.916C129.193 13.568 129.407 13.632 129.556 13.76C129.705 13.8773 129.78 14.0533 129.78 14.288C129.78 14.512 129.705 14.688 129.556 14.816C129.407 14.9333 129.193 14.992 128.916 14.992H124.676V17.744C124.676 18 124.74 18.2027 124.868 18.352C124.996 18.5013 125.177 18.576 125.412 18.576H130.484C130.761 18.576 130.975 18.64 131.124 18.768C131.273 18.8853 131.348 19.0613 131.348 19.296C131.348 19.52 131.273 19.696 131.124 19.824C130.975 19.9413 130.761 20 130.484 20H125.252ZM133.133 11.04C133.133 10.3467 133.336 9.80267 133.741 9.408C134.146 9.00267 134.717 8.8 135.453 8.8H138.349C139.896 8.8 141.058 9.10933 141.837 9.728C142.626 10.3467 143.021 11.2587 143.021 12.464C143.021 13.6053 142.674 14.4907 141.981 15.12C141.288 15.7493 140.328 16.064 139.101 16.064L141.757 18.752C141.928 18.9227 142.013 19.1093 142.013 19.312C142.013 19.536 141.906 19.7387 141.693 19.92C141.49 20.0693 141.293 20.144 141.101 20.144C140.834 20.144 140.578 20.016 140.333 19.76L136.813 16.112H135.005V19.296C135.005 19.5627 134.914 19.776 134.733 19.936C134.562 20.0853 134.338 20.16 134.061 20.16C133.773 20.16 133.544 20.0853 133.373 19.936C133.213 19.776 133.133 19.5627 133.133 19.296V11.04ZM138.333 14.64C139.357 14.64 140.077 14.48 140.493 14.16C140.92 13.8293 141.133 13.264 141.133 12.464C141.133 11.6853 140.904 11.1253 140.445 10.784C139.986 10.4427 139.282 10.272 138.333 10.272H135.725C135.501 10.272 135.325 10.3467 135.197 10.496C135.069 10.6347 135.005 10.832 135.005 11.088V14.64H138.333ZM149.91 20.16C148.886 20.16 147.92 19.984 147.014 19.632C146.118 19.28 145.366 18.7893 144.758 18.16C144.619 18.032 144.55 17.8773 144.55 17.696C144.55 17.472 144.646 17.2747 144.838 17.104C144.976 16.9653 145.131 16.896 145.302 16.896C145.526 16.896 145.755 17.008 145.99 17.232C146.47 17.7013 147.046 18.064 147.718 18.32C148.4 18.5653 149.131 18.688 149.91 18.688C150.699 18.688 151.307 18.5493 151.734 18.272C152.171 17.9947 152.39 17.6053 152.39 17.104C152.39 16.6133 152.166 16.2187 151.718 15.92C151.27 15.6107 150.507 15.3387 149.43 15.104C147.84 14.7627 146.688 14.3147 145.974 13.76C145.259 13.1947 144.902 12.4693 144.902 11.584C144.902 11.008 145.083 10.496 145.446 10.048C145.819 9.6 146.336 9.25333 146.998 9.008C147.67 8.76267 148.443 8.64 149.318 8.64C150.299 8.64 151.179 8.80533 151.958 9.136C152.747 9.46667 153.328 9.92533 153.702 10.512C153.808 10.6827 153.862 10.848 153.862 11.008C153.862 11.2427 153.744 11.44 153.51 11.6C153.371 11.6853 153.232 11.728 153.094 11.728C152.966 11.728 152.838 11.696 152.71 11.632C152.582 11.568 152.475 11.4827 152.39 11.376C152.08 10.9707 151.654 10.6613 151.11 10.448C150.576 10.224 149.979 10.112 149.318 10.112C148.486 10.112 147.846 10.24 147.398 10.496C146.96 10.7413 146.742 11.104 146.742 11.584C146.742 12.032 146.955 12.4 147.382 12.688C147.808 12.9653 148.56 13.2267 149.638 13.472C151.27 13.856 152.443 14.3307 153.158 14.896C153.872 15.4613 154.23 16.1973 154.23 17.104C154.23 17.712 154.048 18.2507 153.686 18.72C153.334 19.1787 152.832 19.536 152.182 19.792C151.531 20.0373 150.774 20.16 149.91 20.16ZM156.888 20C156.557 20 156.274 19.8933 156.04 19.68C155.816 19.456 155.704 19.1947 155.704 18.896C155.704 18.5867 155.816 18.32 156.04 18.096C156.264 17.872 156.546 17.76 156.888 17.76C157.208 17.76 157.48 17.872 157.704 18.096C157.928 18.32 158.04 18.5867 158.04 18.896C158.04 19.1947 157.928 19.456 157.704 19.68C157.48 19.8933 157.208 20 156.888 20ZM160.766 10.768C160.425 10.768 160.142 10.672 159.918 10.48C159.705 10.2773 159.598 10.0213 159.598 9.712C159.598 9.40267 159.705 9.152 159.918 8.96C160.142 8.75733 160.425 8.656 160.766 8.656C161.108 8.656 161.39 8.75733 161.614 8.96C161.838 9.152 161.95 9.40267 161.95 9.712C161.95 10.0213 161.838 10.2773 161.614 10.48C161.39 10.672 161.108 10.768 160.766 10.768ZM160.766 20.16C160.489 20.16 160.27 20.0853 160.11 19.936C159.961 19.7867 159.886 19.5787 159.886 19.312V12.848C159.886 12.5813 159.961 12.3733 160.11 12.224C160.27 12.0747 160.489 12 160.766 12C161.044 12 161.262 12.0747 161.422 12.224C161.593 12.3733 161.678 12.5813 161.678 12.848V19.312C161.678 19.5787 161.593 19.7867 161.422 19.936C161.262 20.0853 161.044 20.16 160.766 20.16ZM168.077 20.16C167.149 20.16 166.333 19.9893 165.629 19.648C164.925 19.296 164.381 18.8107 163.997 18.192C163.623 17.5733 163.437 16.8693 163.437 16.08C163.437 15.2907 163.623 14.5867 163.997 13.968C164.381 13.3493 164.925 12.8693 165.629 12.528C166.333 12.176 167.149 12 168.077 12C169.005 12 169.821 12.176 170.525 12.528C171.229 12.8693 171.767 13.3493 172.141 13.968C172.525 14.5867 172.717 15.2907 172.717 16.08C172.717 16.8693 172.525 17.5733 172.141 18.192C171.767 18.8107 171.229 19.296 170.525 19.648C169.821 19.9893 169.005 20.16 168.077 20.16ZM168.077 18.72C168.941 18.72 169.629 18.4853 170.141 18.016C170.653 17.5467 170.909 16.9013 170.909 16.08C170.909 15.2587 170.653 14.6133 170.141 14.144C169.629 13.6747 168.941 13.44 168.077 13.44C167.202 13.44 166.509 13.6747 165.997 14.144C165.495 14.6133 165.245 15.2587 165.245 16.08C165.245 16.9013 165.495 17.5467 165.997 18.016C166.509 18.4853 167.202 18.72 168.077 18.72Z" fill="#8A6FF2"/>
<path d="M7.37036 0C6.35372 0 5.52957 0.825265 5.52957 1.84328C5.52957 2.8613 6.35372 3.68656 7.37036 3.68656H17.6988C18.8766 3.68656 19.9598 3.7721 20.7739 4.36693C21.4918 4.89148 22.1161 5.6867 22.1161 6.84367C22.1161 7.99179 21.0956 9.74219 19.0422 9.74219H7.34358C6.34173 9.74219 5.52957 10.5555 5.52957 11.5587C5.52957 12.5619 6.34173 13.3751 7.34358 13.3751H15.998C17.1448 13.3751 18.3216 13.4246 19.3415 13.7061C20.3528 13.9853 21.1653 14.4796 21.6516 15.3423C21.9333 15.8419 22.1161 16.4191 22.1161 17.0682C22.1161 17.5003 21.8455 18.31 21.2424 18.9979C20.7806 19.5246 20.1435 19.7991 19.3809 19.9373C18.6486 20.0699 17.849 20.0696 17.0389 20.0692L7.37036 20.0692C6.35372 20.0692 5.52957 20.8944 5.52957 21.9124C5.52957 22.9304 6.35372 23.7557 7.37036 23.7557H19.4354C20.4414 23.7557 21.9555 23.4546 23.2629 22.4622C24.5888 21.4557 25.6594 19.7694 25.7971 17.0918L25.7977 17.08V17.0682C25.7977 16.3543 25.677 15.2739 25.3132 14.2231C25.0103 13.3481 24.5231 12.4497 23.7553 11.8192C24.6651 10.8304 25.7977 9.02673 25.7977 6.84367C25.7977 5.66001 25.4885 3.96722 24.5387 2.55544C23.5721 1.11873 21.9569 0 19.4354 0H7.37036Z" fill="#8A6FF2"/>
<path d="M3.07383 4.8443C1.3762 4.8443 0 6.22236 0 7.92228V25.522C0 27.222 1.3762 28.6 3.07383 28.6H18.4273C19.444 28.6 20.2681 27.7747 20.2681 26.7567C20.2681 25.7387 19.444 24.9135 18.4273 24.9135H4.9665C4.25686 24.9135 3.68159 24.3374 3.68159 23.6268V19.8521C3.68159 19.1415 4.25686 18.5654 4.9665 18.5654H18.4273C19.444 18.5654 20.2681 17.7402 20.2681 16.7222C20.2681 15.7041 19.444 14.8789 18.4273 14.8789H4.9665C4.25686 14.8789 3.68159 14.3028 3.68159 13.5922V9.81752C3.68159 9.10692 4.25686 8.53086 4.9665 8.53086H18.4273C19.444 8.53086 20.2681 7.7056 20.2681 6.68758C20.2681 5.66957 19.444 4.8443 18.4273 4.8443H3.07383Z" fill="#02E8A4"/>
</svg>
