<svg width="24" height="24" viewBox="0 0 24 24" fill="none" xmlns="http://www.w3.org/2000/svg">
<path fill-rule="evenodd" clip-rule="evenodd" d="M12 23C12.2326 23 12.574 22.8778 13.0033 22.3936C13.4317 21.9105 13.8631 21.1543 14.2457 20.1342C14.9484 18.2601 15.4214 15.6701 15.4911 12.75H8.50892C8.57859 15.6701 9.05159 18.2601 9.75435 20.1342C10.1369 21.1543 10.5683 21.9105 10.9967 22.3936C11.426 22.8778 11.7674 23 12 23ZM22.9748 12.75C22.6332 17.8241 18.8506 21.9552 13.9411 22.8293C15.3748 20.9985 16.3884 17.2028 16.4914 12.75H22.9748ZM22.9748 11.25C22.6332 6.17588 18.8506 2.04483 13.9411 1.17072C15.3748 3.00147 16.3884 6.79722 16.4914 11.25H22.9748ZM12 24C18.6274 24 24 18.6274 24 12C24 5.37258 18.6274 0 12 0C5.37258 0 0 5.37258 0 12C0 18.6274 5.37258 24 12 24ZM10.0589 22.8293C5.14935 21.9552 1.36682 17.8241 1.02517 12.75H7.50865C7.61162 17.2028 8.6252 20.9985 10.0589 22.8293ZM1.02517 11.25H7.50865C7.61162 6.79722 8.6252 3.00147 10.0589 1.17072C5.14935 2.04483 1.36682 6.17588 1.02517 11.25ZM12 1C11.7674 1 11.426 1.12215 10.9967 1.60643C10.5683 2.08954 10.1369 2.84566 9.75435 3.86584C9.05159 5.73986 8.57859 8.3299 8.50892 11.25H15.4911C15.4214 8.3299 14.9484 5.73986 14.2457 3.86584C13.8631 2.84566 13.4317 2.08954 13.0033 1.60643C12.574 1.12215 12.2326 1 12 1Z" fill="#BCBCBC"/>
</svg>
