<?xml version="1.0" standalone="no"?>
<!DOCTYPE svg PUBLIC "-//W3C//DTD SVG 20010904//EN"
 "http://www.w3.org/TR/2001/REC-SVG-20010904/DTD/svg10.dtd">
<svg version="1.0" xmlns="http://www.w3.org/2000/svg"
 width="700.000000pt" height="700.000000pt" viewBox="0 0 700.000000 700.000000"
 preserveAspectRatio="xMidYMid meet">
<metadata>
Created by potrace 1.14, written by Peter Selinger 2001-2017
</metadata>
<g transform="translate(0.000000,700.000000) scale(0.100000,-0.100000)"
fill="#000000" stroke="none">
<path d="M855 6989 c-134 -19 -304 -87 -425 -169 -201 -136 -349 -357 -406
-605 -18 -77 -19 -186 -19 -2720 l0 -2640 24 -89 c108 -412 432 -702 842 -756
59 -8 850 -10 2684 -8 l2600 3 80 22 c253 71 453 209 584 402 92 135 154 299
171 454 8 63 10 914 8 2682 l-3 2590 -22 77 c-111 388 -355 633 -738 741 l-80
22 -2620 1 c-1441 1 -2647 -2 -2680 -7z m4185 -879 c269 -28 477 -124 657
-301 123 -122 216 -276 278 -462 130 -393 98 -758 -98 -1109 -40 -71 -143
-214 -170 -237 -26 -20 -21 -33 29 -81 185 -181 313 -535 315 -875 2 -293 -93
-595 -251 -801 -56 -72 -182 -191 -253 -237 -120 -79 -260 -138 -427 -179 -44
-10 -292 -13 -1275 -13 l-1220 0 -48 24 c-62 31 -128 97 -157 158 -34 71 -39
181 -10 255 28 75 96 150 168 185 l57 28 1095 6 c1077 5 1097 6 1190 27 228
52 378 185 449 399 70 210 -34 488 -231 622 -65 45 -192 101 -273 120 -180 45
-161 44 -1220 50 l-1010 6 -56 26 c-76 36 -133 90 -166 157 -24 49 -28 69 -28
142 0 73 4 93 28 142 33 67 90 121 166 157 l56 26 1165 5 1165 5 58 22 c125
47 203 109 276 219 64 96 91 180 91 288 0 254 -172 461 -447 539 -78 21 -84
21 -1183 27 l-1105 5 -58 23 c-70 28 -144 98 -177 166 -34 72 -39 182 -11 257
39 103 138 188 243 208 62 13 2272 13 2388 1z m-538 -903 c202 -99 255 -359
105 -523 -28 -31 -72 -65 -105 -81 l-57 -28 -1295 -5 -1295 -5 -40 -22 c-51
-27 -79 -57 -104 -113 -20 -43 -21 -64 -21 -438 0 -433 0 -435 63 -500 18 -19
50 -43 72 -55 l40 -22 1295 -5 1295 -5 57 -28 c247 -121 240 -482 -12 -601
-45 -21 -45 -21 -1340 -26 l-1295 -5 -40 -21 c-54 -29 -94 -70 -116 -119 -17
-37 -19 -73 -19 -435 0 -376 1 -397 21 -440 25 -56 53 -86 104 -113 l40 -22
1295 -5 1295 -5 57 -28 c202 -99 255 -359 105 -523 -28 -31 -72 -65 -105 -81
l-57 -28 -1480 0 -1480 0 -70 22 c-170 53 -309 191 -368 362 l-22 66 -3 1672
c-3 1815 -4 1746 51 1866 35 76 99 156 164 205 75 57 120 79 206 102 69 18
131 19 1537 17 l1465 -2 57 -28z"/>
</g>
</svg>
